<?xml version="1.0" encoding="UTF-8"?>
<svg id="_图层_2" data-name="图层 2" xmlns="http://www.w3.org/2000/svg" viewBox="0 0 346.98 85.26">
  <defs>
    <style>
      .cls-1 {
        fill: #fff;
      }
    </style>
  </defs>
  <g id="layout">
    <g>
      <path class="cls-1" d="M2.25,47.05c-1-2.5-1.5-5.13-1.99-7.77-.35-1.87-.24-3.74-.24-5.61,0-3.95,.96-7.71,2.31-11.39,.31-.86,.56-1.75,.94-2.58,.28-.62,.74-1.15,1.08-1.74,1.9-3.4,4.29-6.4,7.17-9.01,.15-.13,.22-.35,.33-.52,.09-.07,.17-.13,.26-.2,.29-.17,.61-.31,.87-.52C17.39,4.14,22.39,1.79,27.94,.7c2.92-.57,5.9-.84,8.89-.62,6.21,.45,11.95,2.28,17.14,5.75,.61,.41,1.17,.89,1.75,1.34,.25,.19,.5,.38,.75,.56,.81,.7,1.62,1.39,2.43,2.09,.01,.19,.02,.37,.03,.56-.83,.77-1.69,1.52-2.49,2.32-3.23,3.23-6.44,6.47-9.65,9.72-.62,.62-1.2,1.28-1.85,1.99-.44-.36-.73-.6-1.03-.84-4.55-3.69-10.85-4.3-15.98-1.55-5.14,2.75-8.17,8.34-7.59,14.16,.73,7.33,6.67,12.8,13.84,13.07,3.13,.12,6.01-.6,8.55-2.39,3.64-2.56,5.96-5.98,6.41-10.52,.05-.47,.13-.94,.2-1.47h20.13c.04,1.29,.04,2.6-.18,3.88-.46,2.63-1.01,5.25-1.53,7.87-.14,.23-.28,.47-.42,.7-.56,2.63-1.72,5.04-2.8,7.47-.2,.44-.45,.85-.67,1.28-.06,.07-.13,.14-.19,.22-.37,.79-.69,1.6-1.11,2.35-4.31,7.75-9.68,14.64-16.63,20.22-2.18,1.75-4.48,3.38-7.16,4.3-1.2,.41-2.46,.61-3.7,.91-.09-.02-.17-.05-.26-.07-.02-4.3-.03-8.6-.05-12.9,0-.47,0-.95,0-1.42-2.53-.26-4.94-.51-7.35-.76-.06-.31-.12-.62-.51-.26-.18-.01-.36-.03-.54-.04-.07-.32-.16-.58-.52-.22l-.54-.05c-.09-.14-.16-.35-.28-.39-.9-.29-1.81-.54-2.72-.8-1.91-.39-3.52-1.42-5.13-2.41-1.75-1.08-3.5-2.19-5.11-3.46-1.12-.88-2.01-2.06-3.01-3.09-.3-.31-.66-.56-.99-.84-.15-.26-.31-.51-.46-.77-1.14-1.71-2.27-3.41-3.41-5.12-.06-.06-.13-.12-.19-.18-.72-1.1-1.16-2.32-1.45-3.59-.11-.22-.21-.43-.32-.65Z"/>
      <path class="cls-1" d="M342.97,22.13c.68,2.61,.72,5.28,.71,7.96-.02,5.09,0,10.17-.01,15.26,0,.48-.05,.96-.08,1.44l-.29,.24h-10.04c-.09-.08-.18-.16-.27-.24-.02-.7-.07-1.4-.07-2.1,0-4.92,.02-9.85-.02-14.77,0-1.09-.15-2.19-.37-3.26-.72-3.47-4.67-4.57-7.27-3.61-.88,.32-1.68,.89-2.48,1.41-.46,.29-.59,.76-.59,1.35,.07,6.81,.1,13.62,.13,20.44,0,.24-.11,.49-.16,.73l-.25,.06h-10.04c-.08-.08-.16-.16-.25-.24-.02-.48-.06-.96-.06-1.44,0-5.14,0-10.28,0-15.42,0-1.35-.26-2.63-.69-3.92-.47-1.41-1.33-2.28-2.67-2.82-2.49-1-5.23-.36-6.85,1.75-.28,.37-.35,.97-.35,1.47-.02,5.58,0,11.16-.03,16.74,0,1.22-.15,2.43-.23,3.65-.07,.08-.15,.16-.22,.24h-10.3c-.07-.08-.14-.16-.22-.24,.04-.55,.13-1.1,.13-1.65,0-10.08,0-20.16,0-30.23v-.9c.97-.27,8.57-.35,10.76-.12,.05,.47,.11,.96,.18,1.56,.78-.49,1.44-.99,2.17-1.35,1.87-.91,3.87-1.22,5.93-1.15,.75,.03,1.49,.08,2.24,.12,.19,.22,.33,.58,.73,.32,.81,.29,1.63,.57,2.44,.86,.24,.1,.49,.2,.73,.3,1.17,.79,2.35,1.57,3.61,2.42,.94-.64,2-1.39,3.09-2.09,.93-.6,1.93-1.06,3.06-1.15,.27-.16,.54-.32,.8-.48,1.39-.1,2.77-.24,4.16-.29,1.62-.05,3.23,.03,4.72,.79,.22,.11,.52,.05,.78,.07,.2,.17,.41,.35,.61,.52,.19,.05,.38,.1,.57,.15,.17,.1,.34,.19,.51,.29,2.02,1.12,3.5,2.74,4.54,4.79,.26,.91,.48,1.85,1.19,2.56Z"/>
      <path class="cls-1" d="M94.04,18.53c-.23,1.25-.55,2.49-.66,3.75-.64,7.31,4.65,13.3,11.35,14.23,3.14,.44,6.21,.11,9.13-1.11,1.22-.51,2.33-1.28,3.49-1.95,.49-.29,.7-.71,.67-1.31-.05-1.14-.01-2.27-.01-3.59-4.43-.02-8.8-.03-13.17-.05-.07-.07-.14-.14-.22-.21,.11-.22,.17-.5,.34-.66,2.47-2.38,4.94-4.75,7.44-7.1,.26-.25,.69-.45,1.03-.45,4.53-.01,9.06,.02,13.59,.04,.17,0,.33,.05,.56,.09,.02,.42,.06,.81,.06,1.19,0,4.8-.02,9.59,.02,14.39,0,.85-.23,1.51-.8,2.14-3.65,4.02-8.07,6.72-13.35,8.09-3.81,.99-7.64,1.04-11.45,.45-3.59-.55-6.92-1.94-9.89-4.11-.35-.26-.73-.49-1.09-.73-.03-.07-.08-.12-.16-.13-1.3-1.37-2.67-2.68-3.87-4.13-1.48-1.8-2.5-3.88-3.34-6.06-1.17-3.03-1.37-6.17-1.35-9.37,.02-2.77,.91-5.28,1.95-7.76,1.17-2.8,2.88-5.31,5.05-7.38,2.05-1.96,4.47-3.52,7.13-4.65,4.55-1.93,9.28-2.58,14.16-1.86,5.47,.81,10.3,2.97,14.12,6.92-2.46,2.46-4.9,4.9-7.36,7.36-1.45-2.1-3.76-3.3-6.42-3.9-2.04-.45-4.12-.58-6.17-.28-2.31,.33-4.53,1.01-6.45,2.46-1.88,1.41-3.24,3.2-4.12,5.38-.07,.1-.13,.19-.2,.29Z"/>
      <path class="cls-1" d="M207.07,46.79c.06-.72,.17-1.45,.17-2.17,0-14.29,0-28.58,0-42.87V.14h10.81c.03,5.07,.06,10.15,.09,15.23,.03,.1,.06,.21,.08,.31,.12-.06,.24-.12,.36-.18,1.88-1.13,3.82-2.13,6.03-2.38,2.58-.3,5.07-.09,7.59,.81,4.68,1.69,6.95,5.2,8.01,9.75,.26,1.13,.36,2.33,.36,3.5,.04,6.32,.02,12.65,.02,18.97,0,.22-.04,.44-.06,.65-.08,.08-.16,.16-.25,.24-3.35,0-6.69,0-10.04,0l-.25-.06c-.06-.42-.17-.83-.17-1.25-.01-5.19,0-10.38,0-15.57,0-1.4-.04-2.77-.6-4.11-.59-1.41-1.46-2.27-2.98-2.82-2.92-1.07-5.18-.12-7.34,1.7-.62,.52-.86,1.1-.85,1.93,.04,5.89,.02,11.79,.02,17.68,0,.48-.02,.97-.02,1.45-.05,.28-.1,.55-.15,.83l-.1-.03c-.08,.08-.15,.17-.23,.25-3.43,0-6.87,0-10.3,0-.07-.08-.14-.16-.22-.24Z"/>
      <path class="cls-1" d="M282.03,47.03h-10.45c-.04-.72-.08-1.41-.12-2.09,.03-.43,.02-.44-.26-.3-1.58,.63-3.13,1.41-4.76,1.84-1.37,.36-2.85,.46-4.27,.42-5.55-.18-9.62-2.94-12.78-7.38-1.09-1.54-1.62-3.22-2.14-4.95-.85-2.87-.69-5.76-.19-8.69,.2-1.19,.66-2.28,.98-3.42,.14-.51,.63-.9,.9-1.39,1.55-2.76,3.78-4.85,6.5-6.38,1.15-.64,2.47-1.05,3.76-1.34,2.73-.61,5.49-.62,8.18,.21,1.29,.4,2.5,1.04,3.75,1.56,.08,.05,.16,.11,.25,.16,.02-.07,.04-.13,.06-.2,.04-.39,.09-.77,.14-1.23h10.61c.04,.23,.11,.48,.11,.72,0,10.6,0,21.2,0,31.81,0,.13-.03,.26-.04,.39-.08,.08-.15,.16-.23,.24Zm-10.52-17.05c0-1.45-.03-2.9,.01-4.35,.02-.59-.2-.99-.62-1.36-2.45-2.09-5.25-2.75-8.32-1.86-4.25,1.23-6.43,5.91-4.87,10.3,2.16,6.11,9.85,6.33,13.44,2.55,.23-.25,.34-.7,.35-1.06,.04-1.4,.02-2.81,.02-4.21Z"/>
      <path class="cls-1" d="M188.31,46.79c-.04-.7-.07-1.4-.11-2.1l-.03-.2c-.08,.04-.17,.08-.26,.12-1.6,.88-3.26,1.58-5.05,1.97-2.05,.44-4.09,.46-6.13,.1-1.34-.23-2.68-.61-3.96-1.06-.66-.23-1.18-.8-1.8-1.18-3.19-1.96-5.15-4.89-6.51-8.29-.21-.52-.46-1.01-.69-1.52,.03-.02,.08-.05,.08-.07,0-.06-.04-.12-.06-.18,0-.19-.01-.38-.02-.57,.3-.41,.23-.67-.29-.76-.07-1.91-.14-3.82-.19-5.73,0-.2,.12-.4,.19-.6,.52-.09,.59-.35,.3-.76,0-.19,0-.38,.01-.58,.06-.15,.13-.3,.19-.45,.64-1.91,1.43-3.74,2.64-5.36,.28-.38,.62-.72,.93-1.08,1.35-.09,1.56-.31,1.65-1.66,2.57-2.38,5.64-3.6,9.1-3.84,1.31-.09,2.63,.06,3.95,.1,.24,.12,.49,.25,.73,.37,.19-.02,.37-.04,.56-.06,.17,.1,.33,.21,.5,.31,.69,.28,1.38,.57,2.08,.83,.27,.1,.56,.13,.84,.19,.09,.49,.47,.31,.77,.33,.08,.04,.16,.08,.24,.12,.46,.12,.23-.19,.22-.36,.04-.3,.07-.61,.11-.97h10.73v1.49c0,9.84,0,19.67-.01,29.51,0,.64-.15,1.28-.24,1.93-.08,.08-.15,.16-.23,.24-3.35,0-6.69,0-10.04,0-.07-.08-.15-.15-.22-.23Zm-2.42-23.82c-.09-.21-.18-.42-.26-.64-.09,.13-.18,.25-.26,.38-.17-.05-.33-.09-.5-.14-2.89-.88-5.59-.73-8.14,1.13-.96,.7-1.47,1.69-2.1,2.56-.41,.57-.68,1.44-.61,2.31,.08,.96,.04,1.93,.04,2.89,0,1.11,.38,2.11,1.03,2.95,1.91,2.48,4.4,3.71,7.58,3.29,.72-.1,1.5-.09,2.15-.37,.94-.42,1.79-1.06,2.68-1.61,.04,.27,.15,.56,.47,.34,.32-.23,.57-.56,.95-.95-.33-.11-.48-.17-.63-.22,0-2.45-.01-4.91-.01-7.36q0-2.89-2.36-4.57Z"/>
      <path class="cls-1" d="M147.33,16.42c.38-.2,.77-.37,1.13-.6,2.49-1.62,5.24-2.37,8.17-2.54,.22-.01,.44,0,.66,.01,.08,0,.15,.07,.29,.13v9.97c-1.49,.23-2.96,.4-4.41,.69-2.09,.42-3.98,1.31-5.68,2.63-.68,.53-.98,1.09-.97,1.99,.05,5.54,.02,11.09,.02,16.63,0,.48-.03,.97-.04,1.45-.07,.08-.14,.16-.22,.24-3.43,0-6.86,0-10.29,0-.1-.26-.2-.52-.3-.78V14.02c1-.27,8.05-.36,10.78-.14,.04,.84,.08,1.69,.12,2.55,.01,.19-.28,.53,.23,.49,.1-.15,.21-.3,.31-.45,0,0,.11,0,.11,0l.09-.05Z"/>
      <path class="cls-1" d="M141.21,84.77h-5.43c-.03-.33-.08-.67-.08-1,0-2.2,0-4.4,0-6.6,0-.4,0-.79,0-1.19-.05-2.26-.57-3.5-3.53-3.31-1.25,.08-1.89,.73-1.89,2,0,2.9,0,5.81,0,8.71,0,.43,0,.87,0,1.38h-5.32c-.26-.89-.34-15.23-.06-16.89,1.56,0,3.14,0,4.72,0,.09,0,.18-.01,.26,.01,1.2,.33,1.2,.32,1.94,.02,2.35-.95,4.54-.54,6.61,.8,.33,.21,.61,.5,.97,.8,.35-.24,.69-.5,1.05-.72,2.55-1.61,5.26-1.87,7.99-.62,2.24,1.03,3.41,3.03,3.53,5.37,.19,3.72,.05,7.45,.05,11.24h-5.35c-.03-.35-.08-.69-.08-1.02,0-2.6-.05-5.19,.02-7.79,.03-.92-.36-1.67-.65-2.47-.09-.26-.38-.55-.64-.62-1.14-.33-2.31-.46-3.41,.14-.53,.29-.73,.76-.72,1.42,.05,3.08,.03,6.16,.04,9.24,0,.34,0,.68,0,1.09Z"/>
      <path class="cls-1" d="M178.25,67.72c.28,.19,.53,.47,.84,.57,1.52,.52,2.38,1.67,3.02,3.05-.11,.6-.01,1.14,.53,1.52,.02,3.9,.04,7.8,.06,11.69-.08,.07-.16,.15-.24,.22h-5.13c-.03-.38-.07-.75-.07-1.13,0-2.6,.02-5.19-.02-7.78-.01-.8,.04-1.59-.56-2.33-1.26-1.53-3.39-1.44-4.47-.2-.24,.28-.31,.79-.31,1.2-.02,3.03,0,6.07,0,9.1,0,.34,0,.69,0,1.11h-5.43c-.03-.3-.09-.63-.09-.97,0-2.51,.02-5.01-.02-7.52-.01-.73-.12-1.47-.29-2.18-.22-.92-.98-1.43-1.94-1.43-.48,0-.97-.01-1.45,.02-1.03,.07-1.67,.74-1.68,1.78-.01,2.99,0,5.98,0,8.97,0,.43,0,.85,0,1.34h-5.45v-16.89c1.67,0,3.36-.02,5.06,.03,.2,0,.39,.37,.63,.61,.85-.44,1.68-1.05,2.76-.9,.1-.07,.2-.14,.31-.21,.33,0,.67,0,1,.01,.18,.06,.36,.12,.54,.19,1.66,0,3.02,.68,4.25,1.94,2.14-1.91,4.67-2.42,7.43-2.06,.19,.27,.38,.52,.74,.23Z"/>
      <path class="cls-1" d="M102.96,77.37c1.24,1.22,2.42,2.38,3.65,3.59-.74,.89-1.74,1.51-2.75,2.12-2.71,1.66-5.72,1.78-8.71,1.41-1.81-.22-3.48-1.09-5.06-2.08-2.6-1.62-3.99-4.12-4.83-6.86-.44-1.46-.23-3.15-.14-4.72,.05-.89,.37-1.8,.72-2.64,.3-.73,.79-1.4,1.24-2.06,3.09-4.48,8.64-6.17,13.6-4.93,2.25,.57,4.35,1.53,5.93,3.29-1.25,1.21-2.46,2.39-3.73,3.62-.09-.08-.27-.25-.44-.42-3.29-3.19-9.81-1.72-11.4,2.57-1.36,3.67,.4,7.86,4.08,8.88,2.52,.69,5.17,.55,7.35-1.36,.1-.09,.19-.19,.29-.27,.07-.05,.15-.09,.21-.12Z"/>
      <path class="cls-1" d="M265.36,68.39c.39-.2,.69-.49,1-.5,1.57-.05,3.14-.02,4.79-.02v16.87h-5.35c-.07-.33-.13-.66-.21-1.09-4.74,2.13-8.71,1.34-11.4-3.21-1.97-3.33-1.56-7.33,1.01-10.27,2.53-2.89,5.99-3.47,10.17-1.78Zm.34,7.75c0-.53,0-1.06,0-1.58,0-1.18-.43-1.78-1.52-2.13-.28-.09-.57-.18-.86-.26-2.04-.55-4.21,.7-4.75,2.73-.45,1.72,.17,3.5,1.5,4.48,1.41,1.03,3.39,.86,4.79-.02,.61-.39,.94-.87,.85-1.63-.06-.52-.01-1.05-.01-1.58Z"/>
      <path class="cls-1" d="M217.35,84.55c-.02-2.68-.02-5.36-.07-8.04-.01-.78-.09-1.57-.21-2.34-.19-1.31-.72-1.92-1.78-2.15-1.1-.24-2.24,.21-2.87,1.17-.5,.76-.66,1.61-.66,2.51,0,2.55,0,5.1,0,7.65,0,.43,0,.87,0,1.38h-5.53v-16.78h5.23c.04,.4,.08,.83,.12,1.26v.9c.28-.38,.44-.6,.6-.82,1.32-1.28,2.88-2.01,4.74-1.91,2.96,.15,4.78,1.6,5.59,4.28,.24,.79,.34,1.64,.35,2.46,.04,3.3,.02,6.59,.02,9.89,0,.21-.03,.43-.05,.77h-5.25c-.08-.07-.16-.15-.24-.22Z"/>
      <path class="cls-1" d="M196.11,83.2c-1.72,1.33-3.6,1.93-5.79,1.44-1.66-.37-2.74-1.39-3.59-2.79-.62-1.01-.8-2.12-.81-3.26-.01-3.47,.01-6.94,.03-10.42l.22-.26h5.23c0,.49,0,.91,0,1.34,0,2.42,0,4.83,0,7.25,0,.53,0,1.06,.08,1.58,.19,1.32,.94,2.09,2.07,2.21,1.29,.13,2.51-.61,2.86-1.84,.2-.7,.31-1.44,.32-2.17,.04-2.41,.01-4.83,.02-7.25,0-.34,0-.68,0-1.1h5.39v16.33c-1.66,.13-3.35,.02-5.08,.06-.06-.42-.1-.76-.15-1.09,0-.17,.02-.35,.03-.52-.02-.14-.04-.27-.07-.41-.04,.05-.09,.11-.13,.16-.21,.24-.41,.49-.62,.73Z"/>
      <path class="cls-1" d="M319.31,84.28h-5.37v-16.32h5.12c.05,.59,.09,1.15,.14,1.84,.21-.14,.35-.21,.45-.31,1.85-2.08,4.17-2.59,6.71-1.72,2.44,.83,3.5,2.83,3.72,5.28,.11,1.18,.06,2.37,.07,3.56,0,2.33,0,4.66,0,7,0,.21-.02,.42-.04,.67h-5.39c0-1.2,0-2.34,0-3.47,0-1.58,.01-3.17,0-4.75,0-.61-.04-1.23-.13-1.84-.23-1.57-.76-2.08-2.34-2.31-1-.15-2.2,.63-2.59,1.82-.23,.7-.32,1.46-.34,2.2-.04,2.33-.02,4.66-.02,7v1.37Z"/>
      <path class="cls-1" d="M115.38,72.94c-.28-.44-.55-.88-.93-1.5-1.25,1.36-2.42,2.64-3.6,3.93-.3-.45-.48-.81-.74-1.08-.7-.71-.69-1.4-.22-2.25,.67-1.2,1.43-2.32,2.54-3.16,1.85-1.38,4.06-1.39,5.84,.05,1.43,1.16,2.48,2.6,2.94,4.42,.22,.88,.59,1.76,.63,2.65,.16,3.4-.81,6.29-3.95,8.11-1.42,.82-2.91,.79-4.41,.31-.37-.12-.74-.29-1.07-.5-2.77-1.69-4.24-5.17-3.39-8.64,.63,.86,1.18,1.62,1.81,2.47,.24-.23,.46-.41,.63-.63,.86-1.11,1.71-2.23,2.56-3.36,.22-.29,.44-.56,.84-.3l1.44,1.31c.08-.08,.17-.15,.25-.23-.39-.53-.78-1.07-1.17-1.6Z"/>
      <path class="cls-1" d="M338.33,72.4c-.22,.81,.36,1.12,.93,1.33,.82,.3,1.69,.49,2.52,.75,.67,.21,1.36,.38,1.99,.68,1.72,.79,2.8,2.12,2.92,4.04,.13,2.07-.74,3.68-2.52,4.74-1.48,.88-3.12,1.17-4.82,1.11-2.56-.09-4.92-.76-6.97-2.56,1.02-1.1,2.01-2.16,2.92-3.13,.93,.56,1.67,1.03,2.44,1.45,.9,.5,1.85,.39,2.78,.13,.55-.16,.91-.5,.94-1.13,.03-.62-.3-1.01-.82-1.22-.61-.24-1.25-.42-1.88-.62-.76-.23-1.54-.39-2.27-.68-1.61-.64-2.77-1.7-3.02-3.51-.27-2,.32-3.67,1.99-4.85,2.07-1.46,4.4-1.72,6.81-1.23,1.05,.21,2.07,.6,3.05,1.01,.54,.23,.99,.67,1.64,1.12-1.15,.99-2.18,1.87-3.27,2.81-1.48-.87-3.16-2.13-5.16-.48-.07,.08-.15,.17-.22,.25Z"/>
      <path class="cls-1" d="M276.75,71.91h-2.19v-4.02c.8-.05,1.6-.09,2.51-.14v-4.21h5.34v4.26h3.83v4.01c-1.16,.04-2.29,.07-3.42,.11-.09,.07-.19,.15-.28,.22,0,2.24-.05,4.47-.01,6.71,.02,1,.4,1.42,1.37,1.57,.64,.1,1.3,.02,2.15,.02,.02,.55,.05,1.18,.06,1.81,.01,.61,0,1.22,0,1.91-2.1,.83-4.28,.82-6.28,.03-1.38-.55-2.47-1.79-2.54-3.5-.09-2.06-.12-4.12-.17-6.19-.02-.79-.05-1.58-.08-2.36-.1-.08-.2-.15-.3-.23Z"/>
      <path class="cls-1" d="M247.87,79.18c1.12,1.01,2.09,1.99,3.07,3.07-.22,.27-.38,.53-.6,.72-3.06,2.7-7.73,3-11.33,.94-1.87-1.07-3.03-2.65-3.69-4.54-1.21-3.47-.2-7.02,2.54-9.43,3.41-3,8.88-2.9,12.15-.21,.33,.27,.62,.59,1.06,1.01-1.15,.99-2.21,1.9-3.3,2.84-.88-1.21-2.37-1.54-4.02-1.49-1.25,.04-2.32,.46-3.18,1.38-1.6,1.73-1.43,4.71,.26,6.33,1.49,1.43,5.44,1.65,7.04-.62Z"/>
      <path class="cls-1" d="M305.14,73.77c.31-.3,.61-.59,1.02-.99,.52,.56,.97,1.06,1.51,1.64,.55-.69,1.05-1.32,1.61-2.04,.65,.81,1.22,1.52,1.78,2.24,.11,.13,.21,.29,.25,.46,.68,3.2-.55,7.13-3.51,8.85-2.16,1.25-4.3,1.1-6.29-.34-1.82-1.32-2.86-3.17-3.08-5.41-.09-.95-.04-1.93,.04-2.89,.04-.44,0-.95,.78-1.09,.36-.06,.6-.87,.96-1.46,.6,.57,1.17,1.1,1.82,1.71,.42-.67,.81-1.29,1.31-2.09,.42,.48,.81,.92,1.2,1.36,.16,.38,.36,.49,.6,.06Z"/>
      <path class="cls-1" d="M289.77,67.93c1.36-.06,2.71-.14,4.07-.17,.45,0,.91,.14,1.37,.22,0,5.52-.02,11.04-.03,16.56-1.74,0-3.49-.01-5.23-.02-.08-.07-.15-.15-.23-.22-.02-1.57-.06-3.14-.06-4.71,0-3.8,.03-7.6,.05-11.4,.03-.02,.1-.04,.09-.06,0-.06-.03-.13-.04-.19Z"/>
      <path class="cls-1" d="M226.3,84.57v-16.63h5.42v16.63h-5.42Z"/>
      <path class="cls-1" d="M228.93,65.51c-1.72-.03-3.14-1.43-3.12-3.07,.02-1.7,1.51-3.05,3.32-3,1.76,.06,3.07,1.41,3.02,3.12-.05,1.68-1.46,2.98-3.22,2.95Z"/>
      <path class="cls-1" d="M292.37,59.38c2.13,.24,3.02,1.1,3.16,3.06,.12,1.66-1.39,3-3.16,3-1.73,0-3.15-1.33-3.15-2.98,0-1.83,1.32-3.12,3.15-3.08Z"/>
      <path class="cls-1" d="M22.32,67.16c.91,.26,1.82,.52,2.72,.8,.12,.04,.19,.26,.28,.39-.94-.28-1.89-.55-2.83-.85-.09-.03-.12-.22-.17-.34Z"/>
      <path class="cls-1" d="M135.69,46.26c.1,.26,.2,.52,.3,.78-.17-.05-.35-.1-.52-.15,.07-.21,.15-.42,.22-.63Z"/>
      <path class="cls-1" d="M163.49,33.06c.52,.09,.6,.35,.29,.76-.48-.1-.29-.47-.29-.76Z"/>
      <path class="cls-1" d="M163.79,25.96c.29,.41,.22,.67-.3,.76,0-.29-.19-.66,.3-.76Z"/>
      <path class="cls-1" d="M25.86,68.41c.36-.35,.45-.1,.52,.22-.17-.07-.34-.15-.52-.22Z"/>
      <path class="cls-1" d="M26.92,68.67c.4-.36,.46-.05,.51,.26-.17-.09-.34-.17-.51-.26Z"/>
      <path class="cls-1" d="M2.25,47.05c.11,.22,.21,.43,.32,.65-.31-.11-.56-.26-.32-.65Z"/>
      <path class="cls-1" d="M163.99,24.94c-.06,.15-.13,.3-.19,.45,.06-.15,.13-.3,.19-.45Z"/>
      <path class="cls-1" d="M290,46.79c.07,.08,.14,.16,.22,.24-.07-.08-.14-.16-.22-.24Z"/>
      <path class="cls-1" d="M217.35,84.55c.08,.07,.16,.15,.24,.22-.08-.07-.16-.15-.24-.22Z"/>
      <path class="cls-1" d="M63.69,56.29l.19-.22-.19,.22Z"/>
      <path class="cls-1" d="M4.01,51.29c.06,.06,.13,.12,.19,.18-.06-.06-.13-.12-.19-.18Z"/>
      <path class="cls-1" d="M343.3,47.03l.29-.24-.29,.24Z"/>
      <path class="cls-1" d="M332.99,46.79c.09,.08,.18,.16,.27,.24-.09-.08-.18-.16-.27-.24Z"/>
      <path class="cls-1" d="M321.91,47.03l.25-.06-.25,.06Z"/>
      <path class="cls-1" d="M311.62,46.79c.08,.08,.16,.16,.25,.24-.08-.08-.16-.16-.25-.24Z"/>
      <path class="cls-1" d="M186.16,67.92l-.22,.26,.22-.26Z"/>
      <path class="cls-1" d="M300.52,47.03c.07-.08,.15-.16,.22-.24-.07,.08-.15,.16-.22,.24Z"/>
      <path class="cls-1" d="M282.03,47.03c.08-.08,.15-.16,.23-.24-.08,.08-.15,.16-.23,.24Z"/>
      <path class="cls-1" d="M240.3,47.03c.08-.08,.16-.16,.25-.24-.08,.08-.16,.16-.25,.24Z"/>
      <path class="cls-1" d="M289.77,67.93c.02,.06,.04,.13,.04,.19,0,.02-.06,.04-.09,.06,.02-.08,.04-.17,.05-.25Z"/>
      <path class="cls-1" d="M230.01,46.98c.08,.02,.17,.04,.25,.06-.08-.02-.17-.04-.25-.06Z"/>
      <path class="cls-1" d="M217.59,47.03c.08-.08,.15-.17,.23-.25-.08,.08-.15,.17-.23,.25Z"/>
      <path class="cls-1" d="M207.07,46.79c.07,.08,.14,.16,.22,.24-.07-.08-.14-.16-.22-.24Z"/>
      <path class="cls-1" d="M198.57,47.03c.08-.08,.15-.16,.23-.24-.08,.08-.15,.16-.23,.24Z"/>
      <path class="cls-1" d="M276.75,71.91c.1,.08,.2,.15,.3,.23-.1-.08-.2-.15-.3-.23Z"/>
      <path class="cls-1" d="M282.54,72.14c.09-.07,.19-.15,.28-.22-.09,.07-.19,.15-.28,.22Z"/>
      <path class="cls-1" d="M188.31,46.79c.07,.08,.15,.15,.22,.23-.07-.08-.15-.15-.22-.23Z"/>
      <path class="cls-1" d="M338.33,72.4c.07-.08,.15-.17,.22-.25-.07,.08-.15,.17-.22,.25Z"/>
      <path class="cls-1" d="M146.28,47.03c.07-.08,.14-.16,.22-.24-.07,.08-.14,.16-.22,.24Z"/>
      <path class="cls-1" d="M90.92,41.51c.08,.01,.13,.06,.16,.13-.05-.04-.1-.09-.16-.13Z"/>
      <path class="cls-1" d="M163.8,34.39c.02,.06,.05,.12,.06,.18,0,.02-.05,.04-.08,.07,0-.08,.01-.16,.02-.24Z"/>
      <path class="cls-1" d="M104.62,28.29c.07,.07,.14,.14,.22,.21-.07-.07-.14-.14-.22-.21Z"/>
      <path class="cls-1" d="M94.04,18.53c.07-.1,.13-.19,.2-.29-.07,.1-.13,.19-.2,.29Z"/>
      <path class="cls-1" d="M147.33,16.42l-.09,.05s-.11,0-.11,0c.06-.04,.13-.06,.2-.04Z"/>
      <path class="cls-1" d="M12.1,8.23c-.09,.07-.17,.13-.26,.2,.09-.07,.17-.13,.26-.2Z"/>
      <path class="cls-1" d="M289.72,84.29c.08,.07,.15,.15,.23,.22-.08-.07-.15-.15-.23-.22Z"/>
      <path class="cls-1" d="M182.46,84.77c.08-.07,.16-.15,.24-.22-.08,.07-.16,.15-.24,.22Z"/>
      <path class="cls-1" d="M164.28,67.41c-.1,.07-.2,.14-.31,.21,.1-.07,.2-.14,.31-.21Z"/>
      <path class="cls-1" d="M187.49,35.73c.26-.27,.52-.55,.78-.82,.15,.05,.3,.1,.63,.22-.37,.38-.62,.72-.95,.95-.32,.22-.42-.07-.47-.34Z"/>
      <path class="cls-1" d="M185.9,22.98c-.18-.09-.35-.17-.53-.26,.09-.13,.18-.25,.26-.38,.09,.21,.18,.42,.26,.64Z"/>
    </g>
  </g>
</svg>