<svg id="logo-default" xmlns="http://www.w3.org/2000/svg" width="202.692" height="36.228" viewBox="0 0 202.692 36.228">
  <path id="Path_1" data-name="Path 1" d="M43.607,12.787l-5.35,5.35H46.97v2.751c-1.529,1.529-3.974,2.293-7.032,2.293a8.324,8.324,0,0,1-8.56-8.407c0-4.739,3.516-8.254,8.56-8.254,3.21,0,5.5,1.07,6.879,2.9L51.4,4.839A15.772,15.772,0,0,0,39.939.1C30.92.1,24.5,6.979,24.5,14.927c0,7.8,6.114,14.827,15.592,14.827,8.407,0,12.993-5.962,13.146-6.42v-10.7h0l-9.63.153Z" transform="translate(12.951 0.053)" fill="#0c1218"/>
  <path id="Path_2" data-name="Path 2" d="M29.808,16.509V15.133H21.095A6.4,6.4,0,0,1,14.827,21.4,6.534,6.534,0,0,1,8.56,14.98a6.4,6.4,0,0,1,6.267-6.267,6.66,6.66,0,0,1,4.433,1.681L25.528,4.28A15.6,15.6,0,0,0,14.98,0a14.98,14.98,0,0,0,0,29.96v6.267c4.739-.306,13.757-10.394,14.827-19.719Z" fill="#00546e"/>
  <g id="Group_1" data-name="Group 1" transform="translate(70.927)">
    <path id="Path_3" data-name="Path 3" d="M60.31,11.973a11,11,0,0,0-7.032,2.446V26.8H46.4V5.859h6.879V8A10.4,10.4,0,0,1,60.31,5.4Z" transform="translate(-46.4 2.854)" fill="#0c1218"/>
    <path id="Path_4" data-name="Path 4" d="M80.47,5.806V26.9H73.592V25.219a9.4,9.4,0,0,1-5.5,1.681C62.586,26.9,58,22.162,58,16.2S62.739,5.5,68.089,5.5a9.062,9.062,0,0,1,5.5,1.681V5.806ZM73.592,19.1V12.837A5.183,5.183,0,0,0,69.312,11a4.777,4.777,0,0,0-4.892,5.044,4.777,4.777,0,0,0,4.892,5.044A5.877,5.877,0,0,0,73.592,19.1Z" transform="translate(-40.268 2.907)" fill="#0c1218"/>
    <path id="Path_5" data-name="Path 5" d="M97.247,17.426V29.655H90.369V18.343c0-2.9-1.529-4.28-3.669-4.28a4.729,4.729,0,0,0-3.669,1.987V29.5H76V0h6.879V10.089a8.838,8.838,0,0,1,5.5-1.834C93.732,8.254,97.247,11.617,97.247,17.426Z" transform="translate(-30.754)" fill="#0c1218"/>
    <path id="Path_6" data-name="Path 6" d="M114.87,5.806V26.9h-6.879V25.219a9.4,9.4,0,0,1-5.5,1.681c-5.5,0-10.089-4.739-10.089-10.7S97.139,5.5,102.489,5.5a9.062,9.062,0,0,1,5.5,1.681V5.806Zm-6.726,13.3V12.837A5.183,5.183,0,0,0,103.864,11a4.777,4.777,0,0,0-4.892,5.044,4.777,4.777,0,0,0,4.892,5.044A5.639,5.639,0,0,0,108.145,19.1Z" transform="translate(-22.085 2.907)" fill="#0c1218"/>
    <path id="Path_7" data-name="Path 7" d="M144.441,14.572V26.8h-7.032V15.489c0-2.9-1.529-4.28-3.669-4.28a4.194,4.194,0,0,0-3.21,1.681c0,.459.153,1.07.153,1.529V26.647H123.8V15.336c0-2.9-1.529-4.28-3.669-4.28a3.933,3.933,0,0,0-3.057,1.681V26.495H110.2V5.859h6.879V7.081A6.972,6.972,0,0,1,122.123,5.4a8.539,8.539,0,0,1,6.267,2.751A10.3,10.3,0,0,1,135.575,5.4C140.772,5.4,144.441,8.763,144.441,14.572Z" transform="translate(-12.676 2.854)" fill="#0c1218"/>
  </g>
</svg>
