<?xml version="1.0" encoding="UTF-8"?>
<svg id="_图层_2" data-name="图层 2" xmlns="http://www.w3.org/2000/svg" viewBox="0 0 80 80">
  <defs>
    <style>
      .cls-1 {
        fill: #fff;
      }

      .cls-2 {
        fill: none;
        stroke: #fff;
        stroke-miterlimit: 10;
        stroke-width: 2px;
      }

      .cls-3 {
        fill: #234670;
      }
    </style>
  </defs>
  <g id="_レイヤー_1" data-name="レイヤー 1">
    <rect class="cls-3" width="80" height="80"/>
    <g>
      <g>
        <line class="cls-2" x1="20.26" y1="13.93" x2="60.26" y2="13.93"/>
        <line class="cls-2" x1="20.26" y1="26.07" x2="60.26" y2="26.07"/>
        <line class="cls-2" x1="20.26" y1="38.22" x2="60.26" y2="38.22"/>
      </g>
      <g>
        <path class="cls-1" d="M11.47,51.91h3.17l4.67,13.89h.05l4.67-13.89h3.17v16.51h-2.07v-13.89h-.05l-4.64,13.89h-2.21l-4.64-13.89h-.05v13.89h-2.07v-16.51Z"/>
        <path class="cls-1" d="M41.83,64.58c-.32,2.09-2.28,4.21-5.24,4.21-3.22,0-5.61-2.09-5.61-6.46s3.1-6.3,5.43-6.3c3.29,0,5.56,1.98,5.56,6.07v1.03h-8.78c.02,2.35,1.29,3.86,3.38,3.86s2.85-1.31,3.27-2.41h2Zm-1.93-3.1c-.05-2.35-1.36-3.66-3.33-3.66s-3.24,1.54-3.38,3.66h6.71Z"/>
        <path class="cls-1" d="M45.46,56.39h1.95v1.68h.05c.44-.64,1.56-2.05,3.68-2.05,1.86,0,4.21,.76,4.21,4.19v8.21h-2.07v-7.45c0-2.09-.6-3.15-2.58-3.15-1.15,0-3.17,.74-3.17,4v6.6h-2.07v-12.03Z"/>
        <path class="cls-1" d="M69.29,68.42h-1.96v-1.68h-.05c-.44,.64-1.56,2.05-3.68,2.05-1.86,0-4.21-.76-4.21-4.19v-8.21h2.07v7.45c0,2.09,.6,3.15,2.58,3.15,1.15,0,3.17-.74,3.17-4v-6.6h2.07v12.03Z"/>
      </g>
    </g>
  </g>
</svg>