<?xml version="1.0" encoding="UTF-8"?>
<svg id="_图层_2" data-name="图层 2" xmlns="http://www.w3.org/2000/svg" viewBox="0 0 66.06 48.08">
  <defs>
    <style>
      .cls-1 {
        fill: gray;
      }

      .cls-2 {
        fill: none;
        stroke: gray;
        stroke-miterlimit: 10;
      }
    </style>
  </defs>
  <g id="layout">
    <g>
      <path class="cls-1" d="M5.66,41.03c-.24-.27-.56-.49-.96-.66s-.86-.25-1.37-.25c-.75,0-1.3,.14-1.64,.43-.34,.28-.52,.67-.52,1.16,0,.26,.05,.47,.14,.63,.09,.16,.23,.31,.43,.43,.19,.12,.44,.22,.74,.31,.3,.09,.65,.18,1.06,.26,.46,.1,.87,.2,1.23,.32,.36,.12,.67,.27,.93,.45,.26,.18,.45,.4,.59,.65s.2,.58,.2,.96-.08,.73-.23,1.02-.36,.53-.64,.72c-.27,.19-.6,.33-.97,.43s-.79,.14-1.24,.14c-1.32,0-2.46-.41-3.42-1.24l.42-.68c.15,.16,.33,.31,.55,.46,.21,.14,.45,.27,.71,.38,.26,.11,.54,.19,.83,.25,.3,.06,.61,.09,.94,.09,.68,0,1.21-.12,1.59-.37,.38-.24,.57-.61,.57-1.11,0-.26-.05-.49-.16-.67-.11-.18-.27-.34-.49-.47-.22-.13-.48-.25-.8-.34-.32-.1-.69-.19-1.12-.29-.45-.1-.84-.21-1.18-.32-.34-.11-.62-.25-.85-.42-.23-.17-.41-.37-.52-.61-.12-.24-.17-.53-.17-.87,0-.39,.07-.74,.22-1.05,.15-.31,.36-.56,.63-.77,.27-.2,.59-.36,.96-.47,.37-.11,.78-.16,1.22-.16,.57,0,1.07,.09,1.52,.26,.44,.17,.85,.41,1.21,.73l-.41,.67Z"/>
      <path class="cls-1" d="M7.37,44.81c0-.44,.08-.86,.23-1.25,.15-.39,.37-.73,.64-1.03s.61-.52,.99-.69c.38-.17,.81-.25,1.27-.25,.59,0,1.11,.13,1.55,.4s.77,.63,1,1.09l-.79,.25c-.18-.32-.42-.57-.74-.75-.32-.18-.67-.27-1.05-.27-.32,0-.62,.06-.89,.19-.28,.13-.52,.3-.72,.52-.2,.22-.36,.48-.48,.79-.12,.3-.17,.64-.17,1s.06,.68,.18,1,.28,.58,.49,.81,.45,.41,.73,.54c.28,.13,.57,.2,.88,.2,.2,0,.4-.03,.59-.08,.2-.06,.38-.13,.55-.23s.31-.21,.43-.34,.2-.26,.25-.41l.8,.24c-.09,.22-.22,.43-.38,.62-.17,.19-.37,.35-.59,.49s-.48,.25-.76,.32c-.28,.08-.56,.11-.86,.11-.46,0-.88-.09-1.26-.26-.38-.17-.72-.41-1-.71-.28-.3-.5-.65-.65-1.04-.16-.39-.23-.81-.23-1.26Z"/>
      <path class="cls-1" d="M17.51,42.43c-.55,.02-1.03,.17-1.44,.46-.41,.29-.7,.68-.86,1.19v3.89h-.82v-6.25h.77v1.5c.23-.48,.54-.86,.94-1.13s.81-.41,1.26-.41c.06,0,.12,0,.16,.01v.74Z"/>
      <path class="cls-1" d="M21.26,48.08c-.46,0-.87-.09-1.25-.26-.38-.17-.7-.41-.98-.7s-.49-.64-.64-1.03c-.15-.39-.23-.8-.23-1.24s.08-.86,.23-1.25c.16-.39,.37-.74,.65-1.03,.28-.3,.6-.53,.98-.71,.38-.18,.79-.26,1.24-.26s.86,.09,1.24,.26c.38,.18,.71,.41,.98,.71,.28,.3,.49,.64,.65,1.03,.16,.39,.23,.81,.23,1.25s-.08,.84-.23,1.24c-.15,.39-.37,.74-.64,1.03-.28,.3-.6,.53-.98,.7-.38,.17-.8,.26-1.25,.26Zm-2.27-3.22c0,.35,.06,.68,.18,.98,.12,.3,.28,.56,.49,.79s.44,.41,.72,.53c.28,.13,.57,.19,.88,.19s.61-.07,.88-.2c.28-.13,.52-.31,.73-.54s.37-.49,.49-.8c.12-.3,.18-.63,.18-.98s-.06-.67-.18-.98c-.12-.31-.28-.58-.49-.8s-.45-.41-.73-.54c-.28-.13-.57-.2-.88-.2s-.6,.07-.88,.2c-.27,.13-.51,.31-.72,.55s-.37,.5-.49,.81-.18,.64-.18,.99Z"/>
      <path class="cls-1" d="M25.78,39.2h.82v7.34c0,.23,.06,.41,.19,.55,.13,.13,.31,.2,.54,.2,.09,0,.19-.01,.31-.04s.23-.06,.34-.1l.14,.66c-.15,.06-.34,.12-.56,.16-.22,.04-.41,.06-.57,.06-.38,0-.67-.11-.89-.32-.22-.21-.32-.51-.32-.89v-7.62Z"/>
      <path class="cls-1" d="M29.04,39.2h.82v7.34c0,.23,.06,.41,.19,.55,.13,.13,.31,.2,.54,.2,.09,0,.19-.01,.31-.04s.23-.06,.34-.1l.14,.66c-.15,.06-.34,.12-.56,.16-.22,.04-.41,.06-.57,.06-.38,0-.67-.11-.89-.32-.22-.21-.32-.51-.32-.89v-7.62Z"/>
      <path class="cls-1" d="M35.49,47.96v-8.52h2.89c.68,0,1.27,.11,1.78,.34,.51,.22,.93,.53,1.27,.91s.6,.83,.77,1.35c.17,.52,.26,1.07,.26,1.65,0,.65-.1,1.23-.29,1.76-.19,.52-.47,.97-.82,1.34-.36,.37-.78,.66-1.28,.86-.5,.2-1.06,.31-1.69,.31h-2.89Zm6.13-4.27c0-.51-.07-.98-.22-1.41-.14-.43-.35-.8-.63-1.11-.28-.31-.61-.55-1.01-.73-.4-.17-.86-.26-1.38-.26h-2.05v7.03h2.05c.53,0,.99-.09,1.4-.27,.4-.18,.74-.43,1.01-.74,.27-.32,.48-.69,.62-1.12,.14-.43,.21-.89,.21-1.4Z"/>
      <path class="cls-1" d="M46.57,48.08c-.46,0-.87-.09-1.25-.26-.38-.17-.7-.41-.98-.7-.28-.3-.49-.64-.64-1.03-.15-.39-.23-.8-.23-1.24s.08-.86,.23-1.25c.16-.39,.37-.74,.65-1.03,.28-.3,.6-.53,.98-.71,.38-.18,.79-.26,1.24-.26s.86,.09,1.24,.26c.38,.18,.71,.41,.98,.71,.28,.3,.49,.64,.65,1.03,.16,.39,.23,.81,.23,1.25s-.08,.84-.23,1.24c-.15,.39-.37,.74-.64,1.03s-.6,.53-.98,.7c-.38,.17-.8,.26-1.25,.26Zm-2.27-3.22c0,.35,.06,.68,.18,.98,.12,.3,.28,.56,.49,.79s.44,.41,.72,.53,.57,.19,.88,.19,.61-.07,.88-.2c.28-.13,.52-.31,.73-.54s.37-.49,.49-.8c.12-.3,.18-.63,.18-.98s-.06-.67-.18-.98c-.12-.31-.28-.58-.49-.8s-.45-.41-.73-.54c-.28-.13-.57-.2-.88-.2s-.6,.07-.88,.2c-.27,.13-.51,.31-.72,.55s-.37,.5-.49,.81-.18,.64-.18,.99Z"/>
      <path class="cls-1" d="M58.92,41.71h.8l-2.69,6.25h-.67l-1.34-3.19-1.33,3.19h-.67l-2.69-6.25h.79l2.28,5.41,1.19-2.86-1.07-2.54h.68l.82,2.04,.82-2.04h.7l-1.07,2.54,1.19,2.86,2.27-5.41Z"/>
      <path class="cls-1" d="M66.06,47.96h-.82v-3.49c0-.74-.11-1.28-.33-1.62-.22-.34-.56-.5-1.01-.5-.24,0-.48,.04-.72,.13-.24,.09-.46,.21-.67,.37s-.39,.35-.55,.57c-.16,.22-.28,.46-.35,.71v3.83h-.82v-6.25h.74v1.42c.26-.46,.62-.82,1.1-1.1,.48-.28,.99-.42,1.55-.42,.34,0,.64,.06,.88,.19s.43,.31,.58,.54c.14,.23,.25,.52,.31,.85,.06,.34,.1,.71,.1,1.12v3.66Z"/>
    </g>
    <rect class="cls-2" x="24.56" y=".5" width="17.39" height="30" rx="8.7" ry="8.7"/>
    <circle class="cls-1" cx="33.26" cy="9" r="2"/>
  </g>
</svg>